/* XPM */
static char *result[] = {
/* columns rows colors chars-per-pixel */
"32 32 200 2 ",
"   c #161322",
".  c #171322",
"X  c #161323",
"o  c #171421",
"O  c #161423",
"+  c #151324",
"@  c #151325",
"#  c #171324",
"$  c #171325",
"%  c #171026",
"&  c #141326",
"*  c #151227",
"=  c #171226",
"-  c #161326",
";  c #171326",
":  c #161327",
">  c #171327",
",  c #161424",
"<  c #171424",
"1  c #171425",
"2  c #171426",
"3  c #171427",
"4  c #161627",
"5  c #1A1723",
"6  c #181225",
"7  c #181326",
"8  c #191326",
"9  c #181327",
"0  c #181425",
"q  c #1A1424",
"w  c #1B1624",
"e  c #1A1724",
"r  c #1A1625",
"t  c #1B1725",
"y  c #181426",
"u  c #191426",
"i  c #181427",
"p  c #191427",
"a  c #1A1626",
"s  c #1B1726",
"d  c #1C1725",
"f  c #1C1726",
"g  c #1C1823",
"h  c #1C1826",
"j  c #1C1827",
"k  c #161228",
"l  c #181428",
"z  c #181628",
"x  c #1A1628",
"c  c #19162B",
"v  c #8D6D5B",
"b  c #916D5D",
"n  c #926F5C",
"m  c #936F5C",
"M  c #926F5D",
"N  c #916F5F",
"B  c #926F5E",
"V  c #936F5F",
"C  c #92705D",
"Z  c #93715E",
"A  c #98715D",
"S  c #98715E",
"D  c #907061",
"F  c #937061",
"G  c #927161",
"H  c #947160",
"J  c #967260",
"K  c #977461",
"L  c #957463",
"P  c #967463",
"I  c #987560",
"U  c #9C7861",
"Y  c #9D7861",
"T  c #9D7962",
"R  c #9B7865",
"E  c #99746D",
"W  c #9C7968",
"Q  c #A37E64",
"!  c #A27D66",
"~  c #A67F67",
"^  c #A07B68",
"/  c #A57E68",
"(  c #A88168",
")  c #AA836A",
"_  c #AD846A",
"`  c #AC866A",
"'  c #AC866B",
"]  c #AD866B",
"[  c #AD876B",
"{  c #AE866A",
"}  c #AD856C",
"|  c #AD876C",
" . c #AD866D",
".. c #AF866C",
"X. c #AF876D",
"o. c #AC846E",
"O. c #AD876E",
"+. c #AD866F",
"@. c #AF876E",
"#. c #AE876F",
"$. c #AD886F",
"%. c #AE886F",
"&. c #B0866B",
"*. c #B0876C",
"=. c #B0876E",
"-. c #B0886C",
";. c #B1886C",
":. c #B1896C",
">. c #B38A6D",
",. c #B0886E",
"<. c #B0896E",
"1. c #B3886E",
"2. c #B3896E",
"3. c #B38B6F",
"4. c #B48B6D",
"5. c #B68B6D",
"6. c #B48B6F",
"7. c #B58B6F",
"8. c #B38C6E",
"9. c #AD8770",
"0. c #AE8870",
"q. c #B08A72",
"w. c #B68E73",
"e. c #BC8F72",
"r. c #CD976A",
"t. c #D19D67",
"y. c #D39D68",
"u. c #D09E68",
"i. c #C29474",
"p. c #CA9D7B",
"a. c #CB9E7C",
"s. c #D6A169",
"d. c #D9A36D",
"f. c #D9A46C",
"g. c #D8A46D",
"h. c #D9A46D",
"j. c #D8A56D",
"k. c #D9A56D",
"l. c #DAA46D",
"z. c #DBA46D",
"x. c #DAA56D",
"c. c #DBA56D",
"v. c #D9A46E",
"b. c #D8A56E",
"n. c #D9A56E",
"m. c #D9A46F",
"M. c #D9A56F",
"N. c #DAA46E",
"B. c #DAA56E",
"V. c #DBA56E",
"C. c #DAA46F",
"Z. c #DAA56F",
"A. c #DAA66E",
"S. c #DBA66E",
"D. c #DAA66F",
"F. c #CEA07D",
"G. c #D6A270",
"H. c #D5A375",
"J. c #D9A470",
"K. c #D9A570",
"L. c #D8A471",
"P. c #D9A571",
"I. c #DAA570",
"U. c #DAA571",
"Y. c #DAA670",
"T. c #DBA671",
"R. c #D9A474",
"E. c #DAA775",
"W. c #DBA976",
"Q. c #DCA977",
"!. c #DDAC7A",
"~. c #BD85BC",
"^. c #DEAF84",
"/. c #DEB187",
"(. c #DFB288",
"). c #DFB38A",
"_. c #DFB48C",
"`. c #DFB48D",
"'. c #DEB48E",
"]. c #DFB58F",
"[. c #DFB694",
"{. c #DFB794",
"}. c #DEB697",
"|. c #DEB599",
" X c #E0B289",
".X c #E0B389",
"XX c #E0B48C",
"oX c #E1B48C",
"OX c #E0B48D",
"+X c #E0B58D",
"@X c #E0B58E",
"#X c #E1B58E",
"$X c #E0B48F",
"%X c #E0B58F",
"&X c #E1B58F",
"*X c #E0B68F",
"=X c #E1B68F",
"-X c #E0B691",
";X c #E0B696",
":X c None",
/* pixels */
":X:X:X:X:X:X:X:X:X:X:X:X:X:X:X:X:X:X:X:X:X:X:X:X:X:X:X:X:X:X:X:X",
":X:X:X:X:X:X:X:X:X:X:X:X:X:X:X:X:X:X:X:X:X:X:X:X:X:X:X:X:X:X:X:X",
":X:X:X:X:X:X:X:X:X:X:X:X:X:X:X:X:X:X:X:X:X:X:X:X:X:X:X:X:X:X:X:X",
":X:X:X:X:X:X:X:X:X:X:X:X:X:X:X:X:X:X:X:X:X:X:X:X:X:X:X:X:X:X:X:X",
":X:X:X:X:X:X:X:X:X:X:X:X:X:X:X:X:X:X:X:X:X:X:X:X:X:X:X:X:X:X:X:X",
":X:X:X:X:X:X:X:X:X:X:X:X:X:X:X:X:X:X:X:X:X:X:X:X:X:X:X:X:X:X:X:X",
":X:X:X:X:X:X:X:X:X:X:X:X:X:X:X:X:X:X:X:X:X:X:X:X:X:X:X:X:X:X:X:X",
":X:X:X:X:X:X:X:X:X:X:X:X:X:X:X:X:X:X:X:X:X:X:X:X:X:X:X:X:X:X:X:X",
":X:X:X:X:X:X:X:X:X:X:X:X:X:X:X:X:X:X:X:X:X:X:X:X:X:X:X:X:X:X:X:X",
":X:X:X:X:Xa s :X:X:X:X:X:X:X:X9 u :X:X:X:X:X:X:X:X:X:X:X:X:X:X:X",
":X:X:X:Xh 1.=.x :X:X:X:X:X:Xw O. .y :X:X:X:X:X:X:X:X:X:X:X:X:X:X",
":X:X:X:Xh H.L.R # 8 u y 0 p <.j.m.1 :X:X= $ 7 :X% 6 7 :X:X:X:X:X",
":X:X:X:Xt F.~.W i.x.f.f.f.,.| E G.3 ; y ^  Xq.: ;X{.[.k :X:X:X:X",
":X:X:X:Xh a.V A.n.n.h.h.n.B.S.~.Q 3 A S t.y.u.@ r.7.}.* :X:X:X:X",
":X:X:X:Xj p.D.Z.n.h.k.n.n.k.V.:.U > { ] @X+X@X=XP 4 |.- :X:X:X:X",
":X:X:X:Xt Y I.Z.z f.v.v.c.i B.C.' > ] ] y.$X].%X*X) H - :X:X:X:X",
":X:X:X:Xs T I.Z.c f.9.#.T.i l.v._ l ` ] [ ].@X%X*X-Xi 3 :X:X:X:X",
":X:X:X:Xl T I.I.i x.B.N.U.l I./ / l ] [ [ @X@X%X=X;.I 3 :X:X:X:X",
":X:X:X:Xf ~ U.P.K.D.l l K.z.d./ ! p ( ( e.+X@X@X&X-.K 1 :X:X:X:X",
":X:X:X:X:Xg b R.P.Y.I.P.C.0.$.Z C C oXXXOX@X@X@X=X*.J @ :X:X:X:X",
":X:X:X:X:X:X5 D m m n n M C M B (..XXXOXOX+X@X@X8.G + :X:X:X:X:X",
":X:X:X:X:X:X:Xw } &.......X.W.!./.)._.OX@X3.6.4.N & :X:X:X:X:X:X",
":X:X:X:X:X:X:X:Xe n.g.b.M.K.E.Q.^.2.>.`.@X#Xs.L @ :X:X:X:X:X:X:X",
":X:X:X:X:X:X:X:Xr J.N.o.J.K.2 X , O   +.'.1.v > :X:X:X:X:X:X:X:X",
":X:X:X:X:X:X:X:X:Xd L q F 5.l :X:X< w.o %.. @.: :X:X:X:X:X:X:X:X",
":X:X:X:X:X:X:X:X:X:Xi i i i :X:X:X:Xi i i i i :X:X:X:X:X:X:X:X:X",
":X:X:X:X:X:X:X:X:X:X:X:X:X:X:X:X:X:X:X:X:X:X:X:X:X:X:X:X:X:X:X:X",
":X:X:X:X:X:X:X:X:X:X:X:X:X:X:X:X:X:X:X:X:X:X:X:X:X:X:X:X:X:X:X:X",
":X:X:X:X:X:X:X:X:X:X:X:X:X:X:X:X:X:X:X:X:X:X:X:X:X:X:X:X:X:X:X:X",
":X:X:X:X:X:X:X:X:X:X:X:X:X:X:X:X:X:X:X:X:X:X:X:X:X:X:X:X:X:X:X:X",
":X:X:X:X:X:X:X:X:X:X:X:X:X:X:X:X:X:X:X:X:X:X:X:X:X:X:X:X:X:X:X:X",
":X:X:X:X:X:X:X:X:X:X:X:X:X:X:X:X:X:X:X:X:X:X:X:X:X:X:X:X:X:X:X:X"
};
