/* XPM */
static char *result[] = {
/* columns rows colors chars-per-pixel */
"32 32 180 2 ",
"   c #0F0D1C",
".  c #0F0C1D",
"X  c #0F0D1D",
"o  c #0F0D1E",
"O  c #0F0D1F",
"+  c #100D1C",
"@  c #100D1D",
"#  c #100E1C",
"$  c #110E1C",
"%  c #100F1C",
"&  c #100E1D",
"*  c #110E1D",
"=  c #110F1D",
"-  c #120E1D",
";  c #120F1D",
":  c #100D1E",
">  c #100C1F",
",  c #110D1F",
"<  c #100E1E",
"1  c #110E1E",
"2  c #100F1E",
"3  c #110F1E",
"4  c #100E1F",
"5  c #110E1F",
"6  c #100F1F",
"7  c #110F1F",
"8  c #120E1E",
"9  c #120F1E",
"0  c #130F1E",
"q  c #120E1F",
"w  c #120F1F",
"e  c #11101D",
"r  c #11101E",
"t  c #12101E",
"y  c #13101E",
"u  c #12101F",
"i  c #100D20",
"p  c #100E20",
"a  c #110F20",
"s  c #100E21",
"d  c #110F21",
"f  c #120F20",
"g  c #120E21",
"h  c #120F21",
"j  c #110F22",
"k  c #120F22",
"l  c #121020",
"z  c #121021",
"x  c #5D4D5F",
"c  c #634553",
"v  c #624D5C",
"b  c #604E5D",
"n  c #6B525B",
"m  c #6A515C",
"M  c #6B555F",
"N  c #7E5D5B",
"B  c #5F4E63",
"V  c #614F61",
"C  c #654F61",
"Z  c #624E64",
"A  c #6D5860",
"S  c #6E5960",
"D  c #6F5A64",
"F  c #805E5C",
"G  c #8E655A",
"H  c #8E655B",
"J  c #8C675C",
"K  c #9D6A53",
"L  c #A26F56",
"P  c #A56F57",
"I  c #A37056",
"U  c #A67057",
"Y  c #A67257",
"T  c #A77257",
"R  c #A77556",
"E  c #AB7657",
"W  c #A1775B",
"Q  c #A57759",
"!  c #A97558",
"~  c #AA7658",
"^  c #AB7658",
"/  c #AA7759",
"(  c #A6785A",
")  c #A9795B",
"_  c #AB7A5A",
"`  c #AD7959",
"'  c #AD7B58",
"]  c #AC7A59",
"[  c #AC7B59",
"{  c #AD7B59",
"}  c #AE7B59",
"|  c #AC7A5A",
" . c #AC7B5A",
".. c #AD7B5A",
"X. c #AE7B5B",
"o. c #AD7C59",
"O. c #AE7C59",
"+. c #AD7C5A",
"@. c #AD7D5A",
"#. c #AD7C5B",
"$. c #AF7D5A",
"%. c #AF7D5B",
"&. c #A97B5C",
"*. c #AF7D5C",
"=. c #AF7E5C",
"-. c #AE7E5D",
";. c #B07E59",
":. c #B07C5A",
">. c #B07D5B",
",. c #B07E5A",
"<. c #B07E5B",
"1. c #B17F5B",
"2. c #B07D5C",
"3. c #B07D5D",
"4. c #B07E5C",
"5. c #B17E5C",
"6. c #B07F5C",
"7. c #B07E5D",
"8. c #B17E5D",
"9. c #B27F5C",
"0. c #B27F5D",
"q. c #B27F5E",
"w. c #B37F5F",
"e. c #A87E61",
"r. c #B37F60",
"t. c #B6805B",
"y. c #B1805C",
"u. c #B2815C",
"i. c #B2815D",
"p. c #B3825D",
"a. c #B2805E",
"s. c #B2815E",
"d. c #B2805F",
"f. c #B4815F",
"g. c #B4825E",
"h. c #B5825E",
"j. c #B5825F",
"k. c #AB8161",
"l. c #AA8062",
"z. c #B28060",
"x. c #B38060",
"c. c #B38160",
"v. c #B38061",
"b. c #B68460",
"n. c #B68560",
"m. c #BF8B67",
"M. c #D6AA80",
"N. c #D7AA81",
"B. c #D7AA82",
"V. c #D7AB82",
"C. c #D9A981",
"Z. c #D8AA80",
"A. c #D8AA81",
"S. c #D9AA81",
"D. c #D8AB81",
"F. c #D9AB81",
"G. c #D8AA82",
"H. c #D9AA82",
"J. c #D8AB82",
"K. c #D9AB82",
"L. c #D9AB83",
"P. c #D8AC80",
"I. c #D9AC82",
"U. c #D9AC83",
"Y. c #DAAC82",
"T. c #DAAC83",
"R. c #D9AD84",
"E. c #D9AD85",
"W. c #DAAC84",
"Q. c #DAAD84",
"!. c #DAAD85",
"~. c #DAAE86",
"^. c #DBAF86",
"/. c #DAAF87",
"(. c #DBAF87",
"). c #DBB089",
"_. c #DAB28B",
"`. c #E99BB7",
"'. c #E999B8",
"]. c None",
/* pixels */
"].].].].].].].].].].].].].].].].].].].].].].].].].].].].].].].].",
"].].].].].].].].].].].].].].].].].].].].].].].].].].].].].].].].",
"].].].].].].].].].].].].].].].].].].].].].].].].].].].].].].].].",
"].].].].].].].].].].].].].].].].].].].].].].].].].].].].].].].].",
"].].].].].].].].].].].].].].].].].].].].].].].].].].].].].].].].",
"].].].].].].].].].].].].].].].].].].].].].].].].].].].].].].].].",
"].].].].].].].].].].].].].].].].].].].].].].].].].].].].].].].].",
"].].].].].].].].].].].].].].].].].].].].].].].].].].].].].].].].",
"].].].].].].].].].].].].].].u d ].].].].].].].].].]., 7 ].].].].",
"].].].].].].].].].].].].].t m.m.4 a ].].].].].].].; K K l ].].].",
"].].].].].].].].].].].].].t m.'.'.-.O < < < & &   -.-.K u ].].].",
"].].].].].].].].].].].].].9 m.'.-.-.A.A.A.A.A.M...'.'.K u ].].].",
"].].].].].].].].].].].].].w -.`.-.A.A.G.J.A.A.A.A.C.'.K r ].].].",
"].].].].].].].].].].].].].t | L.S.F.K.K.K.H.A.A.A.S.} | 3 ].].].",
"].].].].].8 = 7 ].].].].].0 | I.J.J.D.K.J.G.A.A.N.G.A.| 1 ].].].",
"].].].].y k.l.e.f 9 3 3 q - ' K.F.G.4 G.G.G.A.Z.4 A.A.-.d ].].].",
"].].].g ) ( Q s -._ / R Z $ @.Y.K.G.4 D.V.B.N.F.O A.H.-.d ].].].",
"].].].h ).J j M -.#.n.b.C $ @.U.I.F.D.D.: @ + N.H.S.K.x.d ].].].",
"].].].k _.W h A 6.~.!.E.B % v 3.9.D.J.P.#.]  .A.V.w.f.K d ].].].",
"].].].z &.c z S y.^.r.W.;.b e V =.6.7.=.+.[ o.<.<.{ ' K 5 ].].].",
"].].].].7 D z S u.(.q.5.>.O.x & #   + + $ $ $ & & o & 2 ].].].].",
"].].].].].7 l m i./.8.4.=.$.X.` ~ ! ! ^ E ! Y I L * ].].].].].].",
"].].].].].].u n u.s.7.2.=.Q.T.I.K.L.H.H.S.S.G.B.N.4 ].].].].].].",
"].].].].].].].j H G =.*.%.j.h.J.D.0.G.G.A.A.F.v.P 6 ].].].].].].",
"].].].].].].].].< 1.N F #.g.p.i.a.1.B.N.z.d.H.c.U p ].].].].].].",
"].].].].].].].].< 1.1.< @ # + + @ ,.:.> X . t.R.T i ].].].].].].",
"].].].].].].].].].< < ].].].].].].i i ].].].i i i ].].].].].].].",
"].].].].].].].].].].].].].].].].].].].].].].].].].].].].].].].].",
"].].].].].].].].].].].].].].].].].].].].].].].].].].].].].].].].",
"].].].].].].].].].].].].].].].].].].].].].].].].].].].].].].].].",
"].].].].].].].].].].].].].].].].].].].].].].].].].].].].].].].].",
"].].].].].].].].].].].].].].].].].].].].].].].].].].].].].].].]."
};
