/* XPM */
static char *result[] = {
/* columns rows colors chars-per-pixel */
"32 32 4 1 ",
"  c #001C40",
". c #BB1120",
"X c #F04040",
"o c None",
/* pixels */
"oooooooooooooooooooooooooooooooo",
"oooooooooooooooooooooooooooooooo",
"oooooooooooooooooooooooooooooooo",
"oooooooooooooooooooooooooooooooo",
"oooooooooooooooooooooooooooooooo",
"oooooooooooooooooooooooooooooooo",
"oooooooooooooooooooooooooooooooo",
"oooooooooooooooooooooooooooooooo",
"ooooooooooo ooooooo oooooooooooo",
"oooooooooo X ooooo X ooooooooooo",
"ooooooooo XXX ooo XXX oooooooooo",
"oooooooo ..XXX o XXXXX ooooooooo",
"ooooooooo ..XXX XXXXX oooooooooo",
"oooooooooo ..XXXXXXX ooooooooooo",
"ooooooooooo ..XXXXX oooooooooooo",
"oooooooooooo XXXXX ooooooooooooo",
"ooooooooooo XXXXXXX oooooooooooo",
"oooooooooo XXXXX.XXX ooooooooooo",
"ooooooooo XXXXX ..XXX oooooooooo",
"oooooooo ..XXX o ..XXX ooooooooo",
"ooooooooo ..X ooo ..X oooooooooo",
"oooooooooo . ooooo . ooooooooooo",
"ooooooooooo ooooooo oooooooooooo",
"oooooooooooooooooooooooooooooooo",
"oooooooooooooooooooooooooooooooo",
"oooooooooooooooooooooooooooooooo",
"oooooooooooooooooooooooooooooooo",
"oooooooooooooooooooooooooooooooo",
"oooooooooooooooooooooooooooooooo",
"oooooooooooooooooooooooooooooooo",
"oooooooooooooooooooooooooooooooo",
"oooooooooooooooooooooooooooooooo"
};
