/* XPM */
static char *result[] = {
/* columns rows colors chars-per-pixel */
"32 32 4 1 ",
"  c #001C40",
". c #289445",
"X c #58D162",
"o c None",
/* pixels */
"oooooooooooooooooooooooooooooooo",
"oooooooooooooooooooooooooooooooo",
"oooooooooooooooooooooooooooooooo",
"oooooooooooooooooooooooooooooooo",
"oooooooooooooooooooooooooooooooo",
"oooooooooooooooooooooooooooooooo",
"oooooooooooooooooooooooooooooooo",
"oooooooooooooooooooooooooooooooo",
"oooooooooooooooooooooooooooooooo",
"ooooooooooooooooooooo oooooooooo",
"oooooooooooooooooooo X ooooooooo",
"ooooooooooooooooooo XXX oooooooo",
"oooooooooooooooooo XXX.. ooooooo",
"ooooooooooo ooooo XXX.. oooooooo",
"oooooooooo X ooo XXX.. ooooooooo",
"ooooooooo XXX o XXX.. oooooooooo",
"oooooooo ..XXX XXX.. ooooooooooo",
"ooooooooo ..XXXXX.. oooooooooooo",
"oooooooooo ..XXX.. ooooooooooooo",
"ooooooooooo ..X.. oooooooooooooo",
"oooooooooooo ... ooooooooooooooo",
"ooooooooooooo . oooooooooooooooo",
"oooooooooooooo ooooooooooooooooo",
"oooooooooooooooooooooooooooooooo",
"oooooooooooooooooooooooooooooooo",
"oooooooooooooooooooooooooooooooo",
"oooooooooooooooooooooooooooooooo",
"oooooooooooooooooooooooooooooooo",
"oooooooooooooooooooooooooooooooo",
"oooooooooooooooooooooooooooooooo",
"oooooooooooooooooooooooooooooooo",
"oooooooooooooooooooooooooooooooo"
};
